<?xml version="1.0" encoding="iso-8859-1"?>
<!-- Uploaded to: SVG Repo, www.svgrepo.com, Generator: SVG Repo Mixer Tools -->
<svg fill="#000000" height="800px" width="800px" version="1.1" id="Layer_1" xmlns="http://www.w3.org/2000/svg" xmlns:xlink="http://www.w3.org/1999/xlink" 
	 viewBox="0 0 512 512" xml:space="preserve">
<g>
	<g>
		<path d="M163.354,204.646c-5-4.977-11.656-7.721-18.738-7.721c-7.083,0-13.739,2.744-18.742,7.725
			c-4.978,4.956-7.721,11.542-7.721,18.545c-0.001,7.003,2.742,13.592,7.722,18.549c4.964,4.944,11.578,7.669,18.63,7.689h0.704
			h63.113L163.354,204.646z"/>
	</g>
</g>
<g>
	<g>
		<path d="M191.127,361.51c-3.843,3.828-8.869,5.741-13.896,5.741c-5.053,0-10.105-1.934-13.953-5.796
			c-7.675-7.706-7.65-20.174,0.056-27.85L208.3,288.82l-63.714,0.003c-0.054,0-0.105-0.005-0.159-0.005H39.385H19.692H0v124.721
			c0,10.877,8.817,19.692,19.692,19.692h216.615v-19.692v-19.692V316.51L191.127,361.51z"/>
	</g>
</g>
<g>
	<g>
		<path d="M386.123,204.652c-5.003-4.983-11.655-7.726-18.735-7.726c-7.083,0-13.735,2.742-18.734,7.721l-44.973,44.787h63.107
			h0.705c7.052-0.021,13.665-2.746,18.628-7.687c4.983-4.961,7.726-11.549,7.726-18.551S391.104,209.608,386.123,204.652z"/>
	</g>
</g>
<g>
	<g>
		<path d="M19.692,78.769C8.817,78.769,0,87.587,0,98.462v150.972h19.692h19.692h44.851c-3.574-8.17-5.468-17.056-5.467-26.238
			c0-17.556,6.862-34.055,19.319-46.457c12.436-12.38,28.96-19.197,46.528-19.197s34.091,6.818,46.526,19.195l45.165,44.985V118.154
			V98.462V78.769H19.692z"/>
	</g>
</g>
<g>
	<g>
		<path d="M492.308,78.769H275.692v19.692v19.692v103.57l45.169-44.982c12.431-12.381,28.954-19.2,46.525-19.2
			s34.095,6.819,46.525,19.2c12.456,12.397,19.319,28.898,19.319,46.454c0,9.182-1.893,18.07-5.468,26.238h44.853h19.692H512V98.462
			C512,87.587,503.183,78.769,492.308,78.769z"/>
	</g>
</g>
<g>
	<g>
		<path d="M492.308,288.818h-19.692H367.571c-0.052,0-0.106,0.005-0.159,0.005l-0.626-0.005h-63.111l44.967,44.787
			c7.706,7.676,7.731,20.144,0.056,27.85c-3.848,3.862-8.9,5.796-13.953,5.796c-5.027,0-10.054-1.913-13.896-5.741l-45.157-44.977
			v77.313v19.692v19.692h216.615c10.875,0,19.692-8.816,19.692-19.692V288.818H492.308z"/>
	</g>
</g>
</svg>